HIERARCHY
ROOT Hips
{
  OFFSET 0 89.5177 0.535
  CHANNELS 6 Xposition Yposition Zposition Zrotation Xrotation Yrotation
  JOINT Spine
  {
    OFFSET 12.0259 -0.162855 1.69034e-005
    CHANNELS 3 Zrotation Xrotation Yrotation
    JOINT Spine1
    {
      OFFSET 15.3169 -0.0121922 0
      CHANNELS 3 Zrotation Xrotation Yrotation
      JOINT Spine2
      {
        OFFSET 15.3176 -0.0121908 0
        CHANNELS 3 Zrotation Xrotation Yrotation
        JOINT Neck
        {
          OFFSET 19.9142 1.56338 0
          CHANNELS 3 Zrotation Xrotation Yrotation
          JOINT Head
          {
            OFFSET 6.92651 0 0
            CHANNELS 3 Zrotation Xrotation Yrotation
            End Site
            {
              OFFSET 20.7666 0 0
            }
          }
          JOINT LeftShoulder
          {
            OFFSET -6.20654 0.708824 7.28219
            CHANNELS 3 Zrotation Xrotation Yrotation
            JOINT LeftArm
            {
              OFFSET 14.108 0 -1.52588e-005
              CHANNELS 3 Zrotation Xrotation Yrotation
              JOINT LeftForeArm
              {
                OFFSET 28.5802 0 0
                CHANNELS 3 Zrotation Xrotation Yrotation
                JOINT LeftHand
                {
                  OFFSET 27.092 0 0
                  CHANNELS 3 Zrotation Xrotation Yrotation
                  End Site
                  {
                    OFFSET 9.55928 -0.186424 0.145352
                  }
                }
              }
            }
          }
          JOINT RightShoulder
          {
            OFFSET -6.20654 0.708866 -7.28218
            CHANNELS 3 Zrotation Xrotation Yrotation
            JOINT RightArm
            {
              OFFSET 14.108 0 1.52588e-005
              CHANNELS 3 Zrotation Xrotation Yrotation
              JOINT RightForeArm
              {
                OFFSET 28.5802 0 0
                CHANNELS 3 Zrotation Xrotation Yrotation
                JOINT RightHand
                {
                  OFFSET 27.092 0 0
                  CHANNELS 3 Zrotation Xrotation Yrotation
                  End Site
                  {
                    OFFSET 9.55929 -0.186417 -0.145354
                  }
                }
              }
            }
          }
        }
      }
    }
  }
  JOINT LeftUpLeg
  {
    OFFSET 0.005 -0.535 8.837
    CHANNELS 3 Zrotation Xrotation Yrotation
    JOINT LeftLeg
    {
      OFFSET 39.9035 0 0
      CHANNELS 3 Zrotation Xrotation Yrotation
      JOINT LeftFoot
      {
        OFFSET 39.6689 0 0
        CHANNELS 3 Zrotation Xrotation Yrotation
        JOINT LeftToe
        {
          OFFSET 10.1624 13.6296 0
          CHANNELS 3 Zrotation Xrotation Yrotation
          End Site
          {
            OFFSET 8.38147 0 0
          }
        }
      }
    }
  }
  JOINT RightUpLeg
  {
    OFFSET 0.005 -0.535 -8.837
    CHANNELS 3 Zrotation Xrotation Yrotation
    JOINT RightLeg
    {
      OFFSET 39.9035 0 0
      CHANNELS 3 Zrotation Xrotation Yrotation
      JOINT RightFoot
      {
        OFFSET 39.6689 0 0
        CHANNELS 3 Zrotation Xrotation Yrotation
        JOINT RightToe
        {
          OFFSET 10.1624 13.6296 0
          CHANNELS 3 Zrotation Xrotation Yrotation
          End Site
          {
            OFFSET 8.38147 0 0
          }
        }
      }
    }
  }
}
MOTION
Frames:	6
Frame Time:	0.0333333
124.79 85.0211 -142.268 -76.1979 51.8202 170.929 6.57613 -0.653359 -0.967093 13.1418 -1.4126 -1.85311 13.1418 -1.4126 -1.85312 -8.30589e-012 -9.0191e-006 -5.27751e-005 -14.2544 -4.49482 0.339159 -178.062 -6.06443 -72.2398 4.75836 7.3895 53.5368 -57.0534 0 2.38542e-015 -56.0449 -48.0599 -53.616 -178.625 8.55768 80.8396 -12.6523 -0.638529 -43.8661 -76.522 5.76475e-015 -0 -38.5313 44.4884 39.6853 -14.3785 19.6872 -166.726 -39.9091 -3.18055e-015 -3.18055e-015 15.0761 2.22604 -5.80548 90 0 3.18055e-015 -4.49235 -11.683 165.793 -34.4691 6.36111e-015 3.97569e-015 23.0166 -6.18719 9.52552 90 1.21329e-020 -6.36111e-015 
124.326 85.3011 -142.35 -76.6927 51.0533 171.807 6.50511 -0.846126 -0.949553 12.9977 -1.79379 -1.79735 12.9977 -1.7938 -1.79736 -8.3043e-012 -9.0191e-006 -5.27751e-005 -14.0476 -4.20409 0.420757 -178.106 -5.90426 -72.1816 4.06339 8.97547 53.6744 -56.9588 0 -9.54166e-015 -52.5025 -47.4046 -49.3379 -178.55 8.61885 80.4103 -10.3496 -0.496392 -45.008 -77.3174 -4.37326e-015 -6.36111e-015 -38.708 44.9954 40.0636 -14.0035 19.6278 -167.277 -38.2062 0 3.18055e-015 13.6636 2.96765 -6.442 90 -1.98785e-016 3.18055e-015 -4.08611 -11.3047 165.938 -33.5578 -3.18056e-015 -3.97569e-015 22.525 -5.16357 9.2247 90 3.03321e-021 -0 
124.031 85.527 -142.393 -77.2145 49.7281 172.843 6.42933 -1.06242 -0.930332 12.8442 -2.22174 -1.7362 12.8442 -2.22174 -1.7362 -8.30589e-012 -9.0191e-006 -5.27751e-005 -13.6021 -4.68547 0.529487 -178.135 -5.78473 -72.0946 3.14485 9.8628 53.8286 -57.2393 -1.27222e-014 -3.18055e-015 -50.0353 -46.3247 -46.1616 -178.454 8.74857 79.9376 -7.79121 -0.732456 -46.3119 -77.5942 8.74652e-015 3.18055e-015 -38.2884 44.9583 39.5556 -12.7476 18.1278 -168.726 -36.0581 0 -0 13.1683 4.42931 -6.50396 90 0 -3.18055e-015 -3.68204 -11.7925 165.707 -32.7739 6.36111e-015 6.36111e-015 22.241 -4.43723 9.04837 90 -3.03321e-021 1.27222e-014 
123.869 85.5721 -142.411 -77.6673 48.6747 173.61 6.32653 -1.14877 -0.931482 12.6377 -2.39259 -1.73112 12.6377 -2.39259 -1.73113 -8.30271e-012 -9.0191e-006 -5.27751e-005 -12.8335 -5.6271 0.85907 -178.231 -5.58016 -72.3769 2.61777 10.0397 54.3968 -58.0271 -3.18055e-015 -3.18055e-015 -49.8281 -46.0108 -45.7863 -178.365 8.76212 79.3853 -5.17395 -1.27946 -47.3756 -77.0966 3.97569e-015 -0 -38.29 45.1644 39.6378 -11.9235 14.894 -169.529 -35.8372 -6.36111e-015 -3.18055e-015 14.6682 6.41229 -11.3643 90 -5.96354e-016 -6.36111e-015 -3.71598 -12.4385 165.405 -32.7091 0 -3.18056e-015 22.33 -4.16178 8.9824 90 1.51661e-020 1.27222e-014 
123.891 85.4369 -142.442 -77.6324 48.2293 173.585 6.25165 -1.13514 -0.916314 12.4883 -2.36272 -1.70396 12.4883 -2.36272 -1.70397 -8.31225e-012 -9.0191e-006 -5.27751e-005 -11.9909 -6.3974 1.474 -178.252 -5.67516 -72.8463 2.22316 9.70041 55.1818 -59.2066 -3.18055e-015 -6.36111e-015 -50.9527 -46.4112 -47.1603 -178.332 8.63852 79.0292 -2.83553 -1.6883 -48.3501 -75.9442 -9.54166e-015 -0 -37.7406 45.3004 39.2277 -10.8685 12.1021 -169.968 -35.7717 3.18055e-015 -3.18055e-015 16.1214 7.14145 -13.1755 90 1.98785e-015 3.18055e-015 -3.99052 -13.0227 165.205 -33.3202 -3.18056e-015 -0 22.6535 -4.35534 9.03347 90 1.21329e-020 -3.18055e-015 
124.063 85.1834 -142.505 -77.4503 48.1836 173.518 6.18833 -1.13086 -0.962842 12.3607 -2.35832 -1.79859 12.3607 -2.35832 -1.7986 -8.30589e-012 -9.0191e-006 -5.27751e-005 -11.3101 -6.96479 2.36327 -178.23 -5.93403 -73.3587 1.77518 9.22825 55.7938 -60.6532 3.18055e-015 6.36111e-015 -51.7632 -46.3586 -47.9674 -178.248 8.65296 78.5053 -1.2295 -1.75607 -48.8206 -74.8445 -1.59028e-015 3.18055e-015 -36.3016 45.0188 37.7326 -9.62036 10.917 -170.749 -34.6729 6.36111e-015 3.18055e-015 16.7457 6.44055 -10.9058 90 1.98785e-016 -6.36111e-015 -4.48308 -13.0812 164.78 -34.4756 -6.36111e-015 -1.59028e-015 23.2446 -4.45179 9.21055 90 -3.03321e-021 -3.18055e-015 
